<svg xmlns="http://www.w3.org/2000/svg" viewBox="0 0 480 320" role="img" aria-label="Illustration : baie informatique avec panneau de brassage, switch, serveurs et câbles"><style>.bg{fill:#eef2fa}.paper{fill:#fff}.ink{fill:#0d2447}.acc{fill:#1c4fc2}.soft{fill:#c9d7f3}.mut{fill:#4c5a73}.s-ink{fill:none;stroke:#0d2447;stroke-width:2.2;stroke-linecap:round;stroke-linejoin:round}.s-acc{fill:none;stroke:#1c4fc2;stroke-width:3;stroke-linecap:round;stroke-linejoin:round}.s-soft{fill:none;stroke:#c9d7f3;stroke-width:3;stroke-linecap:round}.s-line{fill:none;stroke:#d6deec;stroke-width:2}.cone{fill:#1c4fc2;opacity:.14}.rec{fill:#e0453a}.ok{fill:#2f9e6a}.sun{fill:#f2b233}.leaf{fill:#3f9d5a}</style><rect class="bg" width="480" height="320"/><rect class="soft" y="282" width="480" height="38"/><rect class="ink" x="150" y="24" width="176" height="262" rx="10"/><rect class="ink" x="160" y="284" width="16" height="10" rx="2"/><rect class="ink" x="300" y="284" width="16" height="10" rx="2"/><rect class="paper" x="164" y="40" width="148" height="30" rx="4"/><rect class="ink" x="172" y="47" width="8" height="6" rx="1"/><rect class="ink" x="172" y="57" width="8" height="6" rx="1"/><rect class="ink" x="184" y="47" width="8" height="6" rx="1"/><rect class="ink" x="184" y="57" width="8" height="6" rx="1"/><rect class="ink" x="196" y="47" width="8" height="6" rx="1"/><rect class="ink" x="196" y="57" width="8" height="6" rx="1"/><rect class="ink" x="208" y="47" width="8" height="6" rx="1"/><rect class="ink" x="208" y="57" width="8" height="6" rx="1"/><rect class="ink" x="220" y="47" width="8" height="6" rx="1"/><rect class="ink" x="220" y="57" width="8" height="6" rx="1"/><rect class="ink" x="232" y="47" width="8" height="6" rx="1"/><rect class="ink" x="232" y="57" width="8" height="6" rx="1"/><rect class="ink" x="244" y="47" width="8" height="6" rx="1"/><rect class="ink" x="244" y="57" width="8" height="6" rx="1"/><rect class="ink" x="256" y="47" width="8" height="6" rx="1"/><rect class="ink" x="256" y="57" width="8" height="6" rx="1"/><rect class="ink" x="268" y="47" width="8" height="6" rx="1"/><rect class="ink" x="268" y="57" width="8" height="6" rx="1"/><rect class="ink" x="280" y="47" width="8" height="6" rx="1"/><rect class="ink" x="280" y="57" width="8" height="6" rx="1"/><rect class="ink" x="292" y="47" width="8" height="6" rx="1"/><rect class="ink" x="292" y="57" width="8" height="6" rx="1"/><rect class="paper" x="164" y="78" width="148" height="30" rx="4"/><rect class="ink" x="172" y="88" width="8" height="10" rx="1"/><rect class="ink" x="184" y="88" width="8" height="10" rx="1"/><rect class="ink" x="196" y="88" width="8" height="10" rx="1"/><rect class="ink" x="208" y="88" width="8" height="10" rx="1"/><rect class="ink" x="220" y="88" width="8" height="10" rx="1"/><rect class="ink" x="232" y="88" width="8" height="10" rx="1"/><rect class="ink" x="244" y="88" width="8" height="10" rx="1"/><rect class="ink" x="256" y="88" width="8" height="10" rx="1"/><rect class="ink" x="268" y="88" width="8" height="10" rx="1"/><circle class="ok" cx="288" cy="88" r="3"/><circle class="ok" cx="298" cy="88" r="3"/><circle class="acc" cx="288" cy="98" r="3"/><circle class="soft" cx="298" cy="98" r="3"/><rect class="soft" x="164" y="116" width="148" height="14" rx="4"/><rect class="paper" x="164" y="138" width="148" height="30" rx="4"/><rect class="soft" x="174" y="146" width="80" height="4" rx="2"/><rect class="soft" x="174" y="156" width="80" height="4" rx="2"/><circle class="ok" cx="292" cy="153" r="3.5"/><circle class="acc" cx="280" cy="153" r="3.5"/><rect class="paper" x="164" y="176" width="148" height="30" rx="4"/><rect class="soft" x="174" y="184" width="80" height="4" rx="2"/><rect class="soft" x="174" y="194" width="80" height="4" rx="2"/><circle class="ok" cx="292" cy="191" r="3.5"/><circle class="acc" cx="280" cy="191" r="3.5"/><rect class="paper" x="164" y="216" width="148" height="56" rx="4"/><rect class="acc" x="176" y="228" width="44" height="20" rx="3"/><rect x="182" y="235" width="22" height="6" rx="2" fill="#fff"/><rect class="soft" x="236" y="230" width="62" height="4" rx="2"/><rect class="soft" x="236" y="240" width="48" height="4" rx="2"/><rect class="soft" x="236" y="250" width="56" height="4" rx="2"/><path class="s-acc" d="M312 50c60 0 50 70 110 70"/><path d="M312 60c80 0 60 112 110 112" fill="none" stroke="#0d2447" stroke-width="3" stroke-linecap="round"/><path class="s-acc" d="M312 93c40 0 40 130 110 130" style="opacity:.6"/><rect class="paper" x="420" y="106" width="34" height="28" rx="5"/><rect class="s-ink" x="420" y="106" width="34" height="28" rx="5"/><rect class="ink" x="430" y="115" width="14" height="10" rx="2"/><rect class="paper" x="420" y="158" width="34" height="28" rx="5"/><rect class="s-ink" x="420" y="158" width="34" height="28" rx="5"/><rect class="ink" x="430" y="167" width="14" height="10" rx="2"/><rect class="paper" x="420" y="209" width="34" height="28" rx="5"/><rect class="s-ink" x="420" y="209" width="34" height="28" rx="5"/><rect class="ink" x="430" y="218" width="14" height="10" rx="2"/><path d="M150 46c-40 0-46 20-60 40" fill="none" stroke="#0d2447" stroke-width="3" stroke-linecap="round"/><circle class="paper" cx="80" cy="104" r="26"/><circle class="s-ink" cx="80" cy="104" r="26"/><path class="s-acc" d="M66 102a20 20 0 0 1 28 0M72 109a11 11 0 0 1 16 0"/><circle class="acc" cx="80" cy="116" r="2.5"/><path class="s-acc" d="M38 70a56 56 0 0 1 84 0" style="opacity:.35"/><path class="s-acc" d="M24 56a76 76 0 0 1 112 0" style="opacity:.2"/></svg>